<?xml version="1.0" encoding="utf-8"?>
<!-- Generator: Adobe Illustrator 17.0.0, SVG Export Plug-In . SVG Version: 6.00 Build 0)  -->
<!DOCTYPE svg PUBLIC "-//W3C//DTD SVG 1.1//EN" "http://www.w3.org/Graphics/SVG/1.1/DTD/svg11.dtd">
<svg version="1.1" id="Layer_1" xmlns="http://www.w3.org/2000/svg" xmlns:xlink="http://www.w3.org/1999/xlink" x="0px" y="0px"
	 width="1000px" height="1165px" viewBox="0 0 1000 1165" enable-background="new 0 0 1000 1165" xml:space="preserve">
<g>
	<g>
		<path fill-rule="evenodd" clip-rule="evenodd" fill="#B96828" d="M255.15,711.215v69.834l243.493,140.596v-69.863L255.15,711.215z
			 M84.92,304.669l-60.488-34.932v378.087l123.311,71.213v-69.865L84.92,612.903V304.669z"/>
		<polygon fill-rule="evenodd" clip-rule="evenodd" fill="#B96828" points="498.643,1015.229 231.693,861.098 231.693,389.415
			171.2,354.488 171.2,896.029 498.643,1085.064 		"/>
		<path fill-rule="evenodd" clip-rule="evenodd" fill="#F29546" d="M765.622,389.415v278.77l60.498-34.912V354.488L765.622,389.415z
			 M765.622,861.098l-266.979,154.131v69.836L826.12,896.029V762.846l-60.498,34.893V861.098z"/>
		<path fill-rule="evenodd" clip-rule="evenodd" fill="#E67E25" d="M171.2,354.488l60.494,34.927l240.162-138.584l-60.513-34.927
			L171.2,354.488z M646.968,79.936l-122.646,70.772l60.499,34.932l62.147-35.854l266.966,154.127l60.498-34.932L646.968,79.936z"/>
		<polygon fill-rule="evenodd" clip-rule="evenodd" fill="#E67E25" points="351.86,80.693 24.432,269.737 84.92,304.669
			351.86,150.547 765.622,389.415 826.12,354.488 		"/>
		<polygon fill-rule="evenodd" clip-rule="evenodd" fill="#F29546" points="913.934,303.912 913.934,612.161 498.643,851.781
			498.643,921.644 974.432,647.072 974.432,268.98 		"/>
	</g>
	<g>
		<path fill="#DADADA" d="M308.479,529.083c-4.326-1.643-8.201-3.462-11.644-5.442c-3.433-1.972-6.365-4.317-8.778-7.058
			c-2.413-2.729-4.299-6.009-5.634-9.835c-1.327-3.816-2-8.394-2-13.729c0-6.5,1.115-12.221,3.335-17.182
			c2.232-4.961,5.377-9.125,9.452-12.51c4.067-3.363,8.961-5.912,14.7-7.633c5.722-1.73,12.144-2.587,19.278-2.587
			c6.49,0,12.547,0.577,18.22,1.732c5.653,1.135,11.614,2.788,17.863,4.95c-0.778,7.385-2.816,14.635-6.125,21.758
			c-1.902-0.749-3.845-1.518-5.827-2.277c-1.971-0.77-4.057-1.395-6.296-1.923c-2.212-0.5-4.74-0.913-7.528-1.23
			c-2.808-0.317-5.99-0.472-9.558-0.472c-2.152,0-4.346,0.192-6.575,0.566c-2.222,0.385-4.231,1.087-6.01,2.097
			c-1.788,1.029-3.249,2.509-4.384,4.49c-1.146,1.979-1.721,4.558-1.721,7.739c0,2.538,0.441,4.673,1.325,6.396
			c0.896,1.7,2.107,3.161,3.635,4.382c1.529,1.202,3.25,2.223,5.163,3.049c1.895,0.827,3.798,1.624,5.712,2.385l11.46,4.394
			c4.827,1.904,9.21,3.886,13.172,5.913c3.933,2.038,7.269,4.557,10.009,7.537c2.74,2.991,4.875,6.625,6.413,10.885
			c1.519,4.259,2.278,9.519,2.278,15.749c0,6.489-1.173,12.413-3.518,17.748c-2.366,5.336-5.778,9.923-10.222,13.74
			c-4.469,3.816-9.971,6.826-16.518,8.969c-6.547,2.156-14.085,3.25-22.613,3.25c-4.202,0-7.952-0.144-11.269-0.383
			c-3.308-0.26-6.461-0.672-9.451-1.242c-2.99-0.566-5.941-1.297-8.874-2.191c-2.922-0.892-5.97-1.99-9.162-3.25
			c0.394-3.691,1.077-7.547,2.114-11.547c1.01-4.017,2.212-8.038,3.615-12.115c5.346,2.155,10.375,3.798,15.076,4.876
			c4.711,1.076,9.74,1.596,15.085,1.596c8.018,0,14.316-1.482,18.892-4.479c4.577-2.981,6.874-7.521,6.874-13.636
			c0-3.056-0.547-5.604-1.634-7.634c-1.066-2.047-2.461-3.758-4.191-5.153c-1.711-1.402-3.663-2.576-5.818-3.528
			c-2.172-0.951-4.384-1.884-6.681-2.78L308.479,529.083z"/>
		<path fill="#DADADA" d="M542.211,579.81c-0.385-2.598-1.01-5.115-1.902-7.529c-1.415,0.24-3.04,0.519-4.885,0.847
			c-1.837,0.326-3.703,0.488-5.615,0.488c-2.424,0-4.51-0.268-6.299-0.768c-1.788-0.511-3.277-1.461-4.489-2.866
			c-1.201-1.403-2.125-3.307-2.759-5.72c-0.644-2.423-0.962-5.605-0.962-9.557v-38.727h23.094c0.375-2.039,0.636-3.895,0.779-5.548
			c0.105-1.653,0.183-3.365,0.183-5.145c0-1.663-0.077-3.249-0.183-4.768c-0.144-1.529-0.404-3.251-0.779-5.163H515.3V466.54h-4.384
			l-22.547,28.815c0,0-40.258-0.76-44.458,0l-23.268,86.078l-20.614-86.078c-2.172-0.501-4.576-0.827-7.258-0.942
			c-2.664-0.146-5.288-0.192-7.827-0.192c-1.903,0-3.97,0.028-6.211,0.086c-2.23,0.058-4.798,0.404-7.73,1.049l29.025,98.683
			c1,0.24,2.164,0.387,3.442,0.387h3.999c1.76,0,3.539-0.049,5.24-0.107c1.74-0.057,3.278-0.162,4.673-0.279l-3.239,11.828
			c-1.011,3.691-2.174,6.557-3.443,8.584c-1.278,2.049-2.633,3.539-4.085,4.49c-1.472,0.953-2.952,1.519-4.509,1.723
			c-1.52,0.182-3.02,0.285-4.568,0.285c-1.894,0-3.816-0.162-5.73-0.488c-1.923-0.309-3.432-0.644-4.575-1.039
			c-1.03,2.539-1.866,5.182-2.568,7.924c-0.701,2.74-1.058,5.613-1.058,8.682v1.422c0,0.441,0.049,0.992,0.191,1.625
			c2.79,0.77,5.626,1.375,8.5,1.828c2.857,0.442,6.078,0.664,9.625,0.664c3.816,0,7.395-0.367,10.702-1.068
			c3.307-0.693,6.287-1.933,8.969-3.701c2.674-1.799,5.049-4.279,7.154-7.443c2.105-3.191,3.923-7.191,5.442-12.037l30.612-101.337
			h23.776v44.659c0,12.211,3.049,21.018,9.163,26.413c6.105,5.422,14.96,8.123,26.527,8.123c6.229,0,12.268-0.693,18.123-2.096
			c0.135-0.893,0.229-1.828,0.298-2.76c0.058-0.969,0.088-2.123,0.088-3.547C542.779,584.742,542.596,582.426,542.211,579.81z"/>
		<path fill="#DADADA" d="M607.253,527.746c0-3.047-0.528-5.548-1.538-7.431c-1.018-1.914-2.413-3.425-4.183-4.511
			c-1.788-1.058-3.979-1.808-6.595-2.192c-2.597-0.374-5.5-0.566-8.691-0.566c-6.856,0-14.182,1.346-21.941,4.009
			c-1.778-3.298-3.124-6.423-4.019-9.346c-0.894-2.923-1.337-6.433-1.337-10.489c5.607-1.923,11.22-3.336,16.788-4.201
			c5.624-0.895,10.836-1.347,15.662-1.347c13.258,0,23.565,3.192,31.017,9.547c7.451,6.347,11.162,16.537,11.162,30.536v57.257
			c-4.441,1.393-9.846,2.738-16.22,4.018c-6.364,1.26-13.557,1.902-21.574,1.902c-6.472,0-12.412-0.586-17.836-1.719
			c-5.403-1.166-10.047-3.049-13.922-5.732c-3.874-2.672-6.884-6.106-8.971-10.305c-2.096-4.203-3.153-9.337-3.153-15.461
			c0-6.106,1.309-11.221,3.904-15.363c2.614-4.126,5.989-7.442,10.123-9.924c4.125-2.471,8.749-4.26,13.825-5.336
			c5.097-1.076,10.183-1.625,15.279-1.625c3.673,0,7.759,0.183,12.219,0.568V527.746z M607.253,547.398
			c-1.538-0.239-3.201-0.471-4.97-0.654c-1.789-0.201-3.367-0.288-4.75-0.288c-6.268,0-11.2,1.106-14.798,3.326
			c-3.633,2.233-5.441,5.827-5.441,10.797c0,3.299,0.691,5.857,2.096,7.625c1.394,1.789,3.066,3.088,5.047,3.914
			c1.971,0.836,4.068,1.345,6.298,1.527c2.231,0.203,4.163,0.279,5.827,0.279c1.903,0,3.816-0.143,5.721-0.461
			c1.904-0.328,3.549-0.616,4.97-0.875V547.398z"/>
		<path fill="#DADADA" d="M716.718,569.359c1.538,2.537,2.798,5.5,3.808,8.874c1.028,3.365,1.548,7.346,1.548,11.932
			c-5.096,2.027-9.866,3.326-14.327,3.894c-4.451,0.596-9.104,0.873-13.94,0.873c-8.27,0-15.461-1.316-21.565-3.912
			c-6.105-2.623-11.164-6.211-15.173-10.777c-4.009-4.588-7.036-10.029-9.065-16.327c-2.029-6.298-3.059-13.133-3.059-20.525
			c0-7.241,1.002-13.981,2.962-20.212c1.971-6.239,4.971-11.71,8.98-16.431c4.009-4.702,8.998-8.394,14.979-11.076
			c5.971-2.653,12.903-4,20.805-4c2.789,0,5.365,0.068,7.722,0.183c2.356,0.145,4.616,0.385,6.777,0.779
			c2.164,0.385,4.329,0.874,6.501,1.519c2.154,0.624,4.586,1.461,7.249,2.472c0,2.923-0.393,6.21-1.154,9.836
			c-0.76,3.624-1.979,7.096-3.625,10.402c-3.816-1.27-7.151-2.115-10.018-2.576c-2.857-0.433-6.135-0.674-9.835-0.674
			c-7.886,0-13.827,2.597-17.836,7.74c-4.018,5.163-6.018,12.499-6.018,22.038c0,10.316,2.173,17.824,6.489,22.516
			c4.325,4.731,10.182,7.067,17.546,7.067c1.923,0,3.652-0.019,5.259-0.076c1.597-0.069,3.146-0.232,4.683-0.492
			c1.52-0.268,3.088-0.633,4.663-1.133C712.67,570.761,714.544,570.108,716.718,569.359z"/>
	</g>
</g>
</svg>
